HIERARCHY
ROOT root
{
	OFFSET 0.000000 0.000000 0.000000
	CHANNELS 6 Xposition Yposition Zposition Zrotation Yrotation Xrotation
	JOINT lhip
	{
		OFFSET 0.058581 -0.082280 -0.017664
		CHANNELS 3 Zrotation Yrotation Xrotation
		JOINT lknee
		{
			OFFSET 0.043451 -0.386469 0.008037
			CHANNELS 3 Zrotation Yrotation Xrotation
			JOINT lankle
			{
				OFFSET -0.014790 -0.426874 -0.037428
				CHANNELS 3 Zrotation Yrotation Xrotation
				JOINT ltoe
				{
					OFFSET 0.041054 -0.060286 0.122042
					CHANNELS 3 Zrotation Yrotation Xrotation
					End Site
					{
						OFFSET 0.000000 0.000000 0.000000
					}
				}
			}
		}
	}
	JOINT rhip
	{
		OFFSET -0.060310 -0.090513 -0.013543
		CHANNELS 3 Zrotation Yrotation Xrotation
		JOINT rknee
		{
			OFFSET -0.043257 -0.383688 -0.004843
			CHANNELS 3 Zrotation Yrotation Xrotation
			JOINT rankle
			{
				OFFSET 0.019056 -0.420046 -0.034562
				CHANNELS 3 Zrotation Yrotation Xrotation
				JOINT rtoe
				{
					OFFSET -0.034840 -0.062106 0.130323
					CHANNELS 3 Zrotation Yrotation Xrotation
					End Site
					{
						OFFSET 0.000000 0.000000 0.000000
					}
				}
			}
		}
	}
	JOINT lowerback
	{
		OFFSET 0.004439 0.124404 -0.038385
		CHANNELS 3 Zrotation Yrotation Xrotation
		JOINT upperback
		{
			OFFSET 0.004488 0.137956 0.026820
			CHANNELS 3 Zrotation Yrotation Xrotation
			JOINT chest
			{
				OFFSET -0.002265 0.056032 0.002855
				CHANNELS 3 Zrotation Yrotation Xrotation
				JOINT lowerneck
				{
					OFFSET -0.013390 0.211636 -0.033468
					CHANNELS 3 Zrotation Yrotation Xrotation
					JOINT upperneck
					{
						OFFSET 0.010113 0.088937 0.050410
						CHANNELS 3 Zrotation Yrotation Xrotation
						End Site
						{
							OFFSET 0.000000 0.000000 0.000000
						}
					}
				}
				JOINT lclavicle
				{
					OFFSET 0.071702 0.114000 -0.018898
					CHANNELS 3 Zrotation Yrotation Xrotation
					JOINT lshoulder
					{
						OFFSET 0.122921 0.045205 -0.019046
						CHANNELS 3 Zrotation Yrotation Xrotation
						JOINT lelbow
						{
							OFFSET 0.255332 -0.015649 -0.022946
							CHANNELS 3 Zrotation Yrotation Xrotation
							JOINT lwrist
							{
								OFFSET 0.265709 0.012698 -0.007375
								CHANNELS 3 Zrotation Yrotation Xrotation
								End Site
								{
									OFFSET 0.000000 0.000000 0.000000
								}
							}
						}
					}
				}
				JOINT rclavicle
				{
					OFFSET -0.082954 0.112472 -0.023707
					CHANNELS 3 Zrotation Yrotation Xrotation
					JOINT rshoulder
					{
						OFFSET -0.113228 0.046853 -0.008472
						CHANNELS 3 Zrotation Yrotation Xrotation
						JOINT relbow
						{
							OFFSET -0.260127 -0.014369 -0.031269
							CHANNELS 3 Zrotation Yrotation Xrotation
							JOINT rwrist
							{
								OFFSET -0.269108 0.006794 -0.006027
								CHANNELS 3 Zrotation Yrotation Xrotation
								End Site
								{
									OFFSET 0.000000 0.000000 0.000000
								}
							}
						}
					}
				}
			}
		}
	}
}
MOTION
Frames: 15
Frame Time: 0.033333
0.552742 0.236026 0.990439 91.488800 3.489313 94.541595 6.926388 1.480102 -0.972937 2.224216 -1.190289 -7.750253 -1.279075 8.031779 -2.545460 0.000000 -0.000000 0.000000 -1.749337 -2.257446 -5.749474 -1.164727 -2.215222 1.966379 4.253542 -4.552179 -3.515925 0.000000 -0.000000 0.000000 0.079375 -0.386541 1.460236 2.453072 -2.125467 -4.882440 1.682615 -0.603412 -3.415242 0.171902 -6.373868 2.020427 2.962631 -9.650139 -0.539135 -22.023189 7.645445 3.469052 -60.135546 -10.195205 10.814476 6.303145 -13.810091 5.006617 -16.434158 -19.920626 -16.096801 22.320174 -4.837071 0.806659 53.935101 8.793397 18.068538 -0.758925 15.271655 19.926866 12.713947 0.237626 3.277676 
0.552951 0.235968 0.990214 91.510308 3.597126 94.278322 7.040160 2.206345 -0.812750 2.254678 -2.349412 -7.582057 -0.979653 8.239041 -2.634506 0.000000 -0.000000 0.000000 -1.571630 -2.696687 -5.426509 -1.141425 -1.228241 1.910676 4.666652 -5.217678 -3.488579 0.000000 -0.000000 0.000000 0.184330 -0.423791 1.818685 2.456615 -2.244503 -5.776058 1.759505 -0.835930 -2.248556 0.132185 -6.744035 1.925421 2.934530 -8.991938 -0.906922 -22.220214 7.025128 2.904271 -59.976815 -8.790626 12.645962 3.818417 -15.989224 11.906771 -8.865021 -14.085884 -12.808086 22.086059 -3.776911 0.347321 53.835791 8.277073 17.690765 0.297203 14.896650 19.229599 7.860121 0.302316 2.485752 
0.553461 0.236440 0.990829 91.259968 3.681150 94.725095 6.547002 3.234029 -1.473455 3.139618 -3.983203 -7.392296 -1.629892 9.513042 -3.354839 0.000000 -0.000000 0.000000 -1.207879 -2.996374 -5.998842 -1.358214 0.721267 1.847719 5.269602 -6.590539 -4.115257 0.000000 -0.000000 0.000000 0.008181 0.099166 0.035272 3.708609 -3.580196 -2.653539 0.684804 -0.413938 -4.413844 0.033233 -7.795943 4.453992 3.020074 -7.414061 -3.340157 -21.472088 5.473998 -3.601601 -61.461801 -2.022497 21.446041 3.882115 -16.286597 5.410200 -4.458055 -7.942643 2.218448 21.580698 0.390442 -2.817730 54.342576 3.804284 20.420569 0.321444 13.143374 10.398315 5.270628 2.347542 5.469999 
0.554869 0.235973 0.990545 91.581140 3.745056 95.083344 6.634979 3.142383 -1.911826 3.109349 -4.136279 -7.359510 -1.842113 9.468307 -3.378007 0.000000 -0.000000 0.000000 -0.921715 -3.015683 -6.070900 -1.519127 0.636818 1.384494 4.729715 -6.619678 -4.300822 0.000000 -0.000000 0.000000 -0.053030 -0.126504 -0.704559 3.823751 -3.703956 -2.276006 0.687659 -0.721971 -4.690909 0.023760 -7.822344 4.691452 2.815072 -7.495471 -3.102004 -21.512230 5.700772 -3.562764 -61.396347 -1.704534 21.470720 3.738520 -16.660141 5.098831 -4.369820 -7.339777 2.213715 22.017899 0.715014 -2.638638 53.684042 4.137223 20.397909 0.977134 12.437219 10.390563 5.533331 2.404065 5.716793 
0.555108 0.235963 0.990441 91.569658 3.756580 95.088980 6.637787 3.138456 -1.910801 3.124321 -4.146032 -7.358196 -1.852824 9.484365 -3.398530 0.000000 -0.000000 0.000000 -0.893585 -3.005808 -6.063732 -1.533484 0.659688 1.364802 4.733285 -6.614821 -4.320433 0.000000 -0.000000 0.000000 -0.058015 -0.127632 -0.680430 3.828532 -3.712965 -2.281949 0.712396 -0.689519 -4.714988 -0.034627 -7.868943 4.702987 2.877007 -7.498002 -3.092727 -21.493534 5.605819 -3.501101 -61.482659 -1.668059 21.494418 3.783484 -16.623253 5.099577 -4.277291 -7.319221 2.191174 21.960393 0.919577 -2.493169 53.714796 4.141983 20.386018 0.998338 12.337777 10.210051 5.429699 2.491808 5.553342 
0.555576 0.236083 0.990248 91.554839 3.781158 95.089224 6.626853 3.144681 -1.857715 3.180082 -4.252025 -7.452246 -1.858461 9.580867 -3.391498 0.000000 -0.000000 0.000000 -0.837775 -2.941367 -6.000899 -1.556569 0.733352 1.250849 4.728424 -6.774532 -4.360488 0.000000 -0.000000 0.000000 -0.102059 -0.140992 -0.603797 3.830680 -3.714995 -2.264535 0.845984 -0.492177 -4.826910 -0.230001 -8.026777 4.851087 3.064898 -7.472809 -3.116544 -21.422797 5.268152 -3.385222 -61.826607 -1.766617 21.663862 3.964870 -16.315213 5.286419 -4.262692 -7.078710 1.894743 21.760107 1.657403 -2.134055 53.894281 3.786578 20.659792 0.709882 12.263827 9.378341 5.058037 2.796447 4.755579 
0.555900 0.236157 0.989942 91.552017 3.801609 95.100034 6.647954 3.144447 -1.843255 3.174410 -4.305205 -7.494617 -1.855832 9.596935 -3.379862 0.000000 -0.000000 0.000000 -0.795748 -2.941858 -5.998456 -1.577670 0.791117 1.219137 4.691131 -6.823220 -4.369271 0.000000 -0.000000 0.000000 -0.094899 -0.140132 -0.516762 3.843833 -3.726744 -2.348940 0.883617 -0.461781 -4.838580 -0.298701 -8.115320 4.727785 3.013864 -7.503238 -2.865349 -21.516437 5.217868 -3.376432 -61.872630 -1.822979 21.724480 4.043599 -16.214160 5.420798 -4.238952 -6.959668 1.650349 21.853424 1.746916 -2.153462 53.822416 3.733229 20.769960 0.629195 12.362243 9.258438 4.969459 2.808748 4.567798 
0.556180 0.236134 0.989739 91.545613 3.812840 95.093925 6.646054 3.135830 -1.826564 3.204055 -4.303153 -7.500335 -1.830569 9.589466 -3.379492 0.000000 -0.000000 0.000000 -0.777888 -2.918823 -5.977230 -1.582887 0.800215 1.203070 4.676217 -6.838635 -4.343861 0.000000 -0.000000 0.000000 -0.087756 -0.152213 -0.425604 3.847101 -3.743747 -2.403366 0.880099 -0.437436 -4.869233 -0.307026 -8.160964 4.714198 3.058224 -7.529184 -2.839800 -21.529395 5.208017 -3.391774 -61.908140 -1.814931 21.734303 4.080876 -16.186929 5.300188 -4.145129 -6.921006 1.531614 21.889634 1.800360 -2.165335 53.827666 3.813240 20.772244 0.688654 12.333213 9.164132 4.917159 2.806198 4.502894 
0.556386 0.236039 0.989610 91.531910 3.838277 95.118329 6.669228 3.162659 -1.802402 3.221656 -4.291412 -7.580338 -1.851825 9.586844 -3.372622 0.000000 -0.000000 0.000000 -0.730481 -2.927834 -5.995260 -1.600083 0.791858 1.186686 4.672312 -6.816866 -4.347679 0.000000 -0.000000 0.000000 -0.084148 -0.152084 -0.440280 3.843460 -3.758575 -2.365685 0.876692 -0.414826 -4.908787 -0.258020 -8.171261 4.748894 3.151842 -7.548790 -2.937030 -21.537156 5.179426 -3.402312 -61.919391 -1.805023 21.767043 4.129577 -16.219801 5.265423 -4.134856 -6.832773 1.536815 21.920769 1.881848 -2.138995 53.854918 3.893892 20.750197 0.742838 12.361019 9.037250 4.896631 2.817052 4.328269 
0.556643 0.235965 0.989511 91.545318 3.850631 95.168544 6.684891 3.173134 -1.828448 3.222707 -4.313355 -7.612832 -1.832329 9.575268 -3.367375 0.000000 -0.000000 0.000000 -0.702510 -2.950420 -6.014553 -1.614820 0.779801 1.158963 4.663769 -6.815996 -4.334289 0.000000 -0.000000 0.000000 -0.086809 -0.132468 -0.484341 3.835047 -3.787498 -2.363812 0.873547 -0.425730 -4.923949 -0.217256 -8.184773 4.779888 3.200402 -7.534362 -2.998613 -21.526905 5.108919 -3.394395 -61.953255 -1.812398 21.787372 4.171775 -16.217074 5.197771 -4.124135 -6.746645 1.536553 21.930503 1.950459 -2.094911 53.917275 3.912296 20.725602 0.730459 12.510162 8.907802 4.873278 2.846951 4.189517 
0.556770 0.235881 0.989489 91.590751 3.859392 95.210633 6.707259 3.165527 -1.878101 3.204093 -4.313547 -7.601712 -1.844876 9.536739 -3.367403 0.000000 -0.000000 0.000000 -0.688330 -2.959521 -6.022322 -1.601532 0.788421 1.106814 4.673711 -6.816578 -4.318684 0.000000 -0.000000 0.000000 -0.091879 -0.107021 -0.477252 3.838128 -3.807588 -2.408260 0.887947 -0.462078 -4.906313 -0.203291 -8.168929 4.736582 3.123317 -7.455265 -3.007196 -21.532080 5.056602 -3.404836 -61.952558 -1.830816 21.802215 4.164672 -16.255738 5.101916 -3.974040 -6.746327 1.421793 21.956619 1.962318 -2.099906 53.941732 3.960260 20.761044 0.747100 12.665139 8.885618 4.831464 2.852324 4.137125 
0.557005 0.235810 0.989495 91.590259 3.872900 95.209856 6.720263 3.157989 -1.827428 3.229009 -4.294207 -7.665268 -1.852729 9.529562 -3.354127 0.000000 -0.000000 0.000000 -0.669202 -2.971811 -5.988980 -1.600773 0.762584 1.076988 4.682900 -6.791450 -4.334819 0.000000 -0.000000 0.000000 -0.098440 -0.089737 -0.478302 3.827207 -3.815450 -2.403641 0.898006 -0.464767 -4.889038 -0.173167 -8.039701 4.847379 3.165679 -7.389020 -3.137548 -21.480472 5.045050 -3.434045 -62.000422 -1.841176 21.787340 4.233426 -16.297517 5.080654 -4.024566 -6.743328 1.404823 21.940683 1.990287 -2.089761 54.040588 3.994920 20.788350 0.733403 12.807948 8.911222 4.902132 2.832419 4.034217 
0.557094 0.235757 0.989476 91.594922 3.868875 95.253153 6.721201 3.142825 -1.873320 3.219911 -4.282756 -7.653193 -1.832969 9.526943 -3.377657 0.000000 -0.000000 0.000000 -0.660317 -2.968459 -6.042134 -1.622008 0.775106 1.095610 4.688207 -6.791586 -4.336462 0.000000 -0.000000 0.000000 -0.100219 -0.058317 -0.432253 3.810819 -3.788864 -2.528819 0.885060 -0.463779 -4.880641 -0.198733 -8.053837 4.814951 3.193617 -7.399503 -3.081086 -21.453836 5.027049 -3.458352 -61.981291 -1.858476 21.834688 4.233020 -16.331118 5.141276 -4.054449 -6.785001 1.430851 21.925958 1.995130 -2.073801 54.112045 3.927910 20.851507 0.729462 13.028576 8.989586 4.886170 2.892988 3.980571 
0.557129 0.235630 0.989508 91.634035 3.879279 95.326062 6.737528 3.141479 -1.952152 3.227273 -4.300173 -7.665940 -1.850009 9.533065 -3.320672 0.000000 -0.000000 0.000000 -0.630437 -2.971532 -6.103457 -1.621712 0.750898 1.085020 4.680229 -6.843675 -4.342388 0.000000 -0.000000 0.000000 -0.096528 -0.068801 -0.422077 3.798909 -3.779936 -2.682870 0.877069 -0.438058 -4.854302 -0.223189 -8.122123 4.801892 3.204262 -7.417117 -2.988981 -21.420266 5.008575 -3.495105 -61.956487 -1.897419 21.905313 4.187409 -16.276206 5.160949 -4.002314 -6.775458 1.371494 21.927740 1.987689 -2.096398 54.167214 3.903902 20.904572 0.789202 13.098900 9.025417 4.846494 2.914275 3.902465 
0.557201 0.235464 0.989560 91.650983 3.892292 95.384591 6.769400 3.122464 -2.029622 3.213659 -4.291111 -7.635135 -1.856183 9.538973 -3.309479 0.000000 -0.000000 0.000000 -0.590844 -2.958660 -6.136050 -1.640254 0.765989 1.042799 4.671217 -6.844545 -4.344851 0.000000 -0.000000 0.000000 -0.127321 -0.069988 -0.390852 3.808751 -3.773252 -2.839302 0.897712 -0.431038 -4.851107 -0.231287 -8.130632 4.765406 3.196155 -7.393529 -2.925976 -21.399188 5.032370 -3.529854 -61.962404 -1.918854 21.921992 4.239880 -16.235152 5.099683 -3.966098 -6.787506 1.282506 21.929648 1.971535 -2.123782 54.229189 3.926997 20.961771 0.845271 13.026784 9.089507 4.861163 2.892919 3.921663 
